<?xml version="1.0" standalone="no"?>
<!DOCTYPE svg PUBLIC "-//W3C//DTD SVG 20010904//EN"
 "http://www.w3.org/TR/2001/REC-SVG-20010904/DTD/svg10.dtd">
<svg version="1.0" xmlns="http://www.w3.org/2000/svg"
 width="1024.000000pt" height="1024.000000pt" viewBox="0 0 1024.000000 1024.000000"
 preserveAspectRatio="xMidYMid meet">

<g transform="translate(0.000000,1024.000000) scale(0.100000,-0.100000)"
fill="#000000" stroke="none">
<path d="M4905 9124 c-16 -2 -70 -9 -120 -15 -787 -96 -1497 -592 -1854 -1298
-186 -368 -265 -699 -265 -1116 -1 -291 32 -507 114 -757 213 -649 648 -1158
1241 -1452 532 -265 1122 -331 1693 -191 324 80 636 229 913 437 132 98 373
339 466 465 219 297 363 610 441 963 43 197 51 280 50 540 0 206 -4 266 -22
375 -74 432 -250 828 -515 1157 -151 187 -405 411 -617 541 -262 161 -606 282
-942 333 -97 14 -514 28 -583 18z m441 -185 c459 -45 915 -231 1249 -511 424
-354 707 -851 791 -1386 22 -140 29 -433 15 -577 -31 -306 -136 -638 -282
-898 -67 -118 -128 -209 -138 -203 -4 3 -72 88 -151 189 l-143 184 -163 13
c-504 41 -924 -64 -1223 -305 -42 -34 -95 -86 -116 -114 l-40 -52 -3 68 c-2
37 -2 262 0 498 5 576 4 571 194 605 273 48 476 152 644 327 93 96 138 159
195 272 39 78 78 216 89 315 l6 59 -167 -6 c-130 -4 -185 -10 -242 -26 -358
-104 -590 -359 -695 -762 l-24 -94 -1 431 -1 431 103 52 c291 146 485 372 548
637 23 98 28 263 10 345 l-12 57 -62 -14 c-351 -82 -602 -328 -694 -683 -25
-95 -25 -101 -24 -478 1 -211 0 -383 -3 -383 -2 0 -12 24 -22 53 -97 297 -332
576 -579 688 -92 41 -210 67 -343 75 l-115 7 7 -59 c20 -167 97 -364 195 -498
185 -254 414 -389 756 -445 l100 -17 2 -434 2 -435 -32 85 c-48 126 -100 205
-201 305 -149 149 -311 218 -508 219 -58 1 -110 -2 -114 -7 -29 -29 70 -269
150 -367 122 -147 307 -247 511 -276 76 -10 118 -36 156 -96 l34 -52 3 -150 4
-149 -59 50 c-202 175 -480 283 -833 324 -101 11 -301 8 -489 -9 l-75 -7 -132
-168 c-72 -93 -138 -176 -147 -184 -14 -15 -20 -9 -67 63 -241 372 -388 913
-366 1349 38 742 402 1376 1026 1788 413 272 968 406 1476 356z m-1148 -3345
c268 -40 495 -135 654 -273 86 -74 168 -169 213 -247 33 -56 39 -62 58 -53 12
6 44 43 70 84 107 163 233 273 412 361 204 99 418 145 695 147 96 1 205 -2
241 -6 l67 -8 98 -127 c55 -69 104 -134 111 -143 11 -15 -3 -16 -180 -17 -398
0 -692 -61 -982 -201 -227 -109 -407 -239 -495 -355 l-41 -55 -53 62 c-204
241 -656 468 -1056 531 -117 19 -399 38 -454 32 -23 -3 -65 -8 -94 -11 l-53
-6 107 138 c59 76 110 142 114 146 24 27 388 28 568 1z"/>
<path d="M4938 3869 c-68 -16 -161 -70 -214 -124 -97 -100 -140 -224 -131
-375 8 -140 65 -251 165 -325 79 -58 142 -77 273 -83 124 -5 170 2 311 45 l88
26 2 156 3 156 28 13 c16 8 27 21 27 33 0 18 -8 19 -179 19 -172 0 -179 -1
-184 -21 -4 -15 1 -22 21 -29 84 -30 90 -40 91 -182 l1 -96 -47 -19 c-67 -25
-166 -24 -219 4 -122 64 -181 207 -172 416 5 120 31 189 93 249 126 122 347
75 423 -91 9 -20 22 -39 27 -43 18 -13 55 -8 62 8 3 9 0 69 -7 135 -14 125
-18 133 -60 107 -15 -10 -35 -8 -103 10 -90 23 -226 28 -299 11z"/>
<path d="M1500 3863 c-192 -3 -266 -7 -271 -15 -9 -15 8 -38 27 -38 8 0 23 -9
34 -20 19 -19 20 -33 20 -369 l0 -350 -26 -20 c-15 -12 -33 -21 -40 -21 -8 0
-15 -7 -15 -15 -1 -8 -2 -20 -3 -25 -1 -7 108 -12 322 -14 289 -3 324 -1 331
13 16 31 53 201 47 216 -10 26 -43 17 -65 -17 -30 -49 -91 -105 -133 -123 -25
-10 -69 -15 -133 -15 l-95 0 0 171 0 171 81 -4 c74 -3 83 -6 105 -31 13 -16
24 -36 24 -46 0 -19 18 -31 46 -31 11 0 14 26 14 145 l0 145 -29 0 c-25 0 -30
-5 -35 -34 -10 -54 -35 -69 -126 -74 l-80 -5 0 167 0 166 80 0 c103 0 139 -15
215 -90 56 -56 62 -59 81 -46 21 15 21 16 4 113 l-16 98 -50 0 c-27 1 -168 -1
-314 -2z"/>
<path d="M3177 3863 l-268 -3 3 -23 c2 -12 11 -23 23 -25 11 -2 28 -11 38 -20
16 -14 17 -45 17 -372 0 -383 2 -372 -52 -385 -24 -6 -47 -39 -36 -51 3 -2
153 -6 335 -8 l330 -4 28 110 c14 60 24 116 21 124 -10 26 -43 15 -71 -26 -41
-59 -98 -107 -142 -119 -21 -6 -80 -11 -130 -11 l-93 0 0 171 0 171 86 -3 c76
-4 88 -7 105 -28 10 -13 19 -33 19 -46 0 -16 8 -25 26 -29 15 -4 31 -3 36 2 5
5 7 69 6 143 l-3 134 -32 3 c-30 3 -33 1 -33 -23 0 -61 -43 -85 -152 -85 l-58
0 0 165 0 165 88 0 c110 0 152 -19 217 -93 43 -51 49 -55 72 -44 26 12 26 20
-1 154 l-11 58 -50 0 c-27 1 -171 -1 -318 -2z"/>
<path d="M3875 3861 c-121 -5 -150 -9 -150 -20 0 -8 18 -24 40 -35 l40 -21 3
-360 c2 -357 2 -360 -19 -377 -12 -10 -29 -18 -39 -18 -21 0 -31 -19 -20 -40
7 -13 36 -15 177 -14 l168 1 3 25 c3 21 -2 27 -25 33 -52 13 -53 17 -53 171
l0 144 35 0 c33 0 36 -4 91 -97 136 -231 156 -263 172 -272 9 -4 69 -8 132 -7
l115 1 3 27 c3 24 -1 28 -37 38 -51 13 -77 45 -171 206 l-74 127 24 16 c96 63
140 134 140 230 0 73 -22 123 -74 168 -78 69 -186 86 -481 74z m292 -97 c15
-11 38 -40 51 -65 30 -57 28 -163 -4 -206 -39 -52 -70 -67 -144 -71 l-70 -4 0
187 0 187 70 -4 c49 -2 77 -9 97 -24z"/>
<path d="M5763 3863 c-142 -3 -153 -5 -153 -22 0 -12 14 -26 37 -38 32 -15 39
-25 45 -58 9 -55 9 -635 0 -670 -6 -21 -18 -32 -43 -40 -23 -8 -35 -19 -37
-33 -2 -12 1 -22 7 -23 6 0 84 -1 174 -1 l162 -1 3 27 c2 18 -1 26 -12 26 -8
0 -27 5 -41 12 l-25 11 0 149 0 148 34 0 c33 0 36 -3 127 -161 52 -89 106
-174 120 -189 25 -28 28 -28 130 -28 127 0 139 3 139 32 0 18 -8 25 -38 34
-21 7 -48 22 -61 35 -26 28 -181 286 -181 302 0 6 16 19 36 30 20 11 51 36 68
57 83 96 73 264 -19 334 -83 63 -164 75 -472 67z m286 -95 c47 -28 66 -77 66
-165 0 -67 -4 -86 -21 -109 -39 -53 -70 -68 -144 -72 l-70 -4 0 185 0 186 28
3 c39 5 116 -8 141 -24z"/>
<path d="M6783 3863 c-251 -3 -263 -4 -263 -22 0 -12 14 -26 38 -38 l37 -18 3
-357 2 -356 -26 -21 c-15 -12 -33 -21 -40 -21 -9 0 -14 -11 -14 -27 l0 -28
324 -1 325 -1 22 81 c32 121 35 154 14 162 -13 5 -25 -1 -43 -22 -106 -127
-137 -143 -274 -144 l-98 0 0 170 0 170 70 0 c90 0 127 -17 136 -64 4 -26 12
-36 31 -41 14 -3 28 -3 32 0 3 4 6 68 6 143 l0 137 -30 3 c-29 3 -32 0 -40
-40 -9 -37 -15 -45 -45 -55 -19 -7 -63 -12 -97 -12 l-63 -1 0 165 0 165 83 0
c102 0 143 -18 216 -93 48 -49 56 -54 77 -45 24 11 24 9 0 148 l-11 65 -55 0
c-30 1 -173 -1 -317 -2z"/>
<path d="M7582 3863 l-273 -3 3 -23 c2 -14 11 -23 25 -25 13 -2 32 -15 43 -29
19 -25 20 -40 20 -360 0 -220 -4 -341 -11 -355 -6 -11 -26 -26 -45 -34 -26
-11 -34 -20 -32 -35 3 -19 13 -19 328 -22 l324 -2 29 108 c16 60 26 115 23
123 -10 26 -43 14 -71 -26 -41 -59 -98 -107 -142 -119 -21 -6 -80 -11 -130
-11 l-93 0 0 171 0 171 84 -3 c93 -4 120 -19 131 -70 6 -28 35 -46 55 -34 6 4
10 63 10 146 l0 139 -29 0 c-29 0 -41 -14 -41 -49 0 -37 -36 -54 -125 -59
l-85 -5 0 167 0 166 85 0 c108 0 143 -14 220 -91 55 -54 63 -58 80 -45 18 13
18 19 6 97 -18 124 -15 119 -69 117 -26 -2 -170 -4 -320 -5z"/>
<path d="M1973 3843 c-4 -10 -1 -19 6 -21 48 -16 71 -62 206 -417 184 -483
166 -445 213 -445 21 0 46 6 55 13 14 10 186 456 273 706 28 81 50 114 89 137
12 7 16 16 12 27 -6 16 -21 17 -129 15 -112 -3 -123 -5 -123 -22 0 -12 12 -22
35 -30 33 -11 35 -13 33 -56 -2 -58 -166 -550 -183 -550 -3 0 -29 62 -59 138
-122 312 -162 424 -156 442 3 10 19 23 36 29 21 7 30 16 27 28 -3 16 -19 18
-166 21 -146 2 -163 1 -169 -15z"/>
<path d="M8117 3853 c-16 -15 -5 -35 26 -48 63 -26 62 -16 65 -385 3 -330 3
-337 -18 -363 -13 -16 -31 -27 -46 -27 -14 0 -25 -6 -25 -15 -1 -8 -2 -20 -3
-27 -1 -12 256 -19 276 -7 20 13 2 42 -32 53 -59 19 -61 31 -58 352 l3 287 69
-94 c38 -52 161 -212 273 -356 180 -232 207 -263 231 -263 16 0 36 6 46 13 16
11 17 43 16 403 0 431 -4 408 63 433 17 7 27 18 27 31 0 19 -6 20 -140 20
-133 0 -140 -1 -140 -20 0 -13 12 -25 34 -34 19 -8 40 -25 47 -38 15 -27 27
-504 12 -495 -4 3 -107 136 -228 296 l-220 290 -136 1 c-75 0 -139 -3 -142 -7z"/>
<path d="M4543 2665 c-234 -51 -382 -275 -351 -532 28 -233 245 -401 488 -377
195 19 335 122 401 294 30 77 37 215 15 299 -62 244 -290 373 -553 316z m193
-89 c60 -28 107 -81 136 -156 30 -77 37 -287 13 -379 -32 -122 -77 -180 -158
-202 -93 -25 -189 7 -243 80 -119 162 -107 539 21 637 66 50 151 57 231 20z"/>
<path d="M7920 2663 c-205 -56 -340 -236 -340 -452 0 -189 82 -332 233 -406
133 -65 285 -66 485 -4 l102 32 0 144 c0 130 2 145 20 163 11 11 25 20 30 20
6 0 10 11 10 25 l0 25 -175 0 c-148 0 -177 -2 -181 -15 -8 -19 13 -45 36 -45
9 0 29 -9 44 -21 25 -20 26 -23 26 -135 l0 -115 -34 -14 c-136 -57 -278 0
-345 137 -39 79 -55 169 -48 274 10 145 57 240 145 291 39 23 58 27 117 27
114 0 193 -48 253 -155 22 -40 32 -49 55 -49 15 0 30 7 33 15 3 8 1 54 -5 102
-22 165 -24 171 -62 137 -16 -14 -23 -13 -86 6 -95 30 -229 35 -313 13z"/>
<path d="M1571 2621 c-15 -57 -33 -200 -26 -211 3 -6 17 -10 30 -10 19 0 30
10 46 43 51 101 96 137 174 137 l45 0 0 -351 c0 -217 -4 -357 -10 -369 -6 -11
-26 -22 -45 -26 -19 -3 -36 -12 -36 -20 -1 -8 -2 -20 -3 -26 -1 -17 360 -19
375 -2 13 16 0 44 -22 44 -31 0 -67 21 -73 44 -3 11 -6 175 -6 364 l0 342 40
0 c82 0 141 -45 175 -135 15 -39 22 -45 47 -45 16 0 31 6 34 13 2 7 -4 64 -13
127 l-18 114 -353 2 -352 1 -9 -36z"/>
<path d="M2402 2644 c-20 -14 -9 -44 16 -44 11 0 31 -9 45 -20 l26 -20 4 -288
c2 -209 7 -297 17 -325 18 -50 82 -123 130 -147 96 -49 289 -46 389 5 59 30
94 67 123 130 22 47 23 66 29 330 3 154 9 288 13 298 5 10 21 24 37 33 17 8
29 23 29 33 0 18 -10 20 -117 23 -65 2 -126 0 -135 -4 -22 -10 -24 -48 -4 -48
8 0 28 -11 43 -24 l28 -24 3 -239 c4 -272 -1 -329 -31 -375 -61 -91 -240 -107
-314 -27 -51 56 -56 87 -61 351 -5 291 -2 312 39 334 21 11 29 21 27 36 -3 19
-10 20 -162 22 -103 0 -164 -3 -174 -10z"/>
<path d="M3385 2642 c-7 -20 -35 -192 -35 -220 0 -20 4 -23 31 -20 19 2 36 11
43 23 63 118 107 155 185 155 l41 0 0 -342 c0 -383 -1 -387 -63 -402 -35 -9
-55 -35 -43 -54 3 -5 87 -8 188 -8 l183 1 0 24 c0 18 -8 27 -30 34 -57 19 -55
2 -55 388 l0 359 38 0 c81 -1 151 -57 183 -147 8 -24 17 -33 32 -33 47 0 49 8
30 136 l-18 119 -352 1 c-299 0 -353 -2 -358 -14z"/>
<path d="M5208 2642 c-13 -16 -4 -27 43 -50 l34 -17 3 -345 c1 -190 0 -355 -3
-367 -3 -15 -16 -25 -38 -31 -25 -6 -32 -14 -32 -33 l0 -24 170 0 170 0 3 28
c2 19 -1 27 -12 27 -8 0 -27 5 -41 12 l-25 11 0 149 0 148 33 0 c32 0 35 -5
132 -170 54 -94 107 -179 118 -190 17 -19 29 -20 140 -18 l122 3 3 26 c3 22
-2 27 -35 37 -54 16 -81 48 -174 203 -71 119 -79 135 -63 144 128 75 179 185
142 309 -17 55 -73 109 -144 137 -56 22 -72 23 -297 24 -183 0 -241 -3 -249
-13z m420 -76 c118 -61 124 -269 8 -328 -26 -13 -61 -21 -96 -22 l-55 -1 -3
189 -2 189 60 -6 c33 -4 73 -13 88 -21z"/>
<path d="M6097 2641 c-9 -10 -7 -16 8 -27 10 -8 24 -14 30 -14 6 0 21 -10 33
-23 22 -23 22 -28 22 -371 l0 -347 -46 -20 c-36 -16 -45 -25 -42 -42 3 -21 7
-21 176 -22 95 0 177 2 183 6 20 12 4 42 -26 52 -57 19 -55 2 -55 382 0 323 1
353 18 367 9 9 26 18 37 20 13 2 20 11 20 27 l0 24 -173 1 c-135 1 -176 -2
-185 -13z"/>
<path d="M6584 2651 c-2 -2 -4 -13 -4 -23 0 -12 14 -24 40 -34 59 -24 62 -43
58 -408 -3 -341 -3 -339 -62 -354 -24 -6 -31 -14 -31 -33 0 -24 0 -24 120 -26
149 -3 167 1 163 30 -2 15 -12 23 -32 27 -16 3 -37 16 -47 30 -16 23 -18 54
-21 318 -2 160 0 292 5 292 4 0 7 -4 7 -9 0 -16 441 -600 509 -673 26 -30 67
-36 102 -18 18 10 19 25 19 404 0 428 -3 409 57 425 18 5 29 15 31 29 2 12 0
22 -5 23 -55 4 -263 0 -272 -5 -21 -14 -7 -38 29 -50 20 -6 40 -21 47 -36 17
-35 23 -504 6 -487 -6 7 -109 140 -228 297 l-217 284 -135 1 c-74 0 -137 -2
-139 -4z"/>
<path d="M4615 1417 c-125 -49 -193 -163 -183 -306 8 -103 55 -178 143 -224
57 -30 193 -31 250 -1 42 22 105 102 105 135 0 34 -34 21 -58 -22 -45 -78
-135 -102 -217 -56 -92 51 -131 230 -75 341 34 68 68 91 134 91 62 0 95 -19
139 -81 54 -76 76 -55 57 56 -10 57 -15 70 -30 70 -10 0 -20 -4 -22 -10 -2 -6
-19 -4 -43 5 -48 17 -158 18 -200 2z"/>
<path d="M5227 1416 c-80 -29 -154 -112 -178 -201 -37 -136 53 -300 184 -336
56 -15 184 -7 224 14 56 29 105 80 129 132 33 71 33 180 0 250 -28 59 -86 118
-138 140 -46 19 -168 19 -221 1z m159 -52 c46 -22 71 -59 90 -135 28 -108 2
-234 -58 -284 -24 -20 -40 -25 -85 -25 -51 0 -59 3 -93 38 -47 46 -63 99 -63
207 0 108 32 183 88 206 33 13 85 10 121 -7z"/>
<path d="M5699 992 c-48 -40 -17 -122 46 -122 40 0 65 26 65 68 0 62 -63 92
-111 54z"/>
</g>
</svg>
